<?xml version="1.0" standalone="no"?>
<!DOCTYPE svg PUBLIC "-//W3C//DTD SVG 20010904//EN"
 "http://www.w3.org/TR/2001/REC-SVG-20010904/DTD/svg10.dtd">
<svg version="1.0" xmlns="http://www.w3.org/2000/svg"
 width="501.000000pt" height="498.000000pt" viewBox="0 0 501.000000 498.000000"
 preserveAspectRatio="xMidYMid meet">

<g transform="translate(0.000000,498.000000) scale(0.100000,-0.100000)"
fill="#000000" stroke="none">
<path d="M2290 4463 c-339 -51 -576 -134 -834 -292 -250 -154 -495 -400 -651
-655 -144 -236 -223 -448 -277 -746 -44 -244 -25 -578 48 -835 100 -356 261
-632 519 -891 296 -298 624 -473 1050 -560 130 -27 156 -29 370 -29 214 0 240
2 370 29 433 88 770 271 1071 578 213 218 352 441 455 729 164 460 156 922
-25 1416 -24 65 -108 231 -156 308 -119 191 -315 410 -479 534 -284 217 -571
340 -927 401 -96 16 -161 20 -315 19 -107 -1 -205 -3 -219 -6z m505 -248 c182
-32 356 -86 490 -152 375 -187 655 -469 830 -836 113 -238 161 -431 172 -687
10 -248 -26 -478 -112 -708 -225 -601 -780 -1043 -1420 -1132 -94 -13 -385
-13 -482 1 -571 78 -1086 449 -1342 967 -129 260 -186 502 -186 792 0 353 83
644 270 949 98 159 276 353 425 464 278 207 521 302 925 361 61 9 343 -3 430
-19z"/>
<path d="M2295 3884 c-224 -35 -414 -122 -541 -249 l-54 -54 0 -65 c0 -53 -5
-74 -28 -113 -105 -180 -142 -429 -101 -678 6 -33 12 -67 15 -76 3 -12 -15
-31 -59 -63 -146 -103 -258 -270 -293 -437 -24 -111 -14 -290 21 -389 63 -176
185 -320 337 -399 99 -50 182 -70 296 -71 76 0 85 2 109 26 l26 26 -7 150 c-4
83 -13 232 -21 332 -7 99 -17 231 -20 291 -13 236 -35 524 -41 538 -13 35 -54
50 -119 43 l-63 -6 -12 87 c-26 178 -1 360 69 509 24 51 36 66 65 78 20 8 68
40 106 70 85 66 155 100 258 127 299 76 641 25 822 -124 28 -23 72 -53 98 -67
38 -21 52 -38 78 -90 66 -135 93 -357 63 -526 l-11 -63 -62 6 c-55 5 -65 3
-89 -18 -36 -32 -42 -72 -62 -436 -9 -161 -18 -299 -20 -305 -8 -24 -35 -577
-28 -595 14 -41 44 -53 133 -52 109 0 184 18 290 70 161 80 297 251 349 439
31 110 29 287 -3 398 -45 156 -152 302 -283 389 l-55 37 5 46 c4 25 11 83 18
130 26 196 -16 434 -106 596 -27 49 -33 70 -28 97 8 54 -13 102 -70 153 -62
56 -168 127 -233 154 -208 90 -500 122 -749 84z"/>
<path d="M2053 2628 c-42 -20 -47 -52 -34 -266 6 -108 16 -249 21 -312 5 -63
14 -191 20 -285 19 -315 21 -340 37 -372 29 -62 101 -63 146 -2 19 27 19 29
-2 310 -11 156 -23 329 -26 384 -14 239 -37 500 -46 517 -18 34 -74 46 -116
26z"/>
<path d="M2910 2627 c-14 -7 -30 -24 -37 -37 -13 -28 -28 -185 -43 -460 -6
-102 -17 -275 -25 -385 -21 -297 -20 -347 8 -373 14 -13 36 -22 56 -22 83 0
97 36 106 280 3 85 10 205 16 266 20 239 39 533 39 610 0 63 -4 87 -17 103
-23 27 -71 35 -103 18z"/>
</g>
</svg>
